#!OML:ASF H:\MichaelJackson\Top Level 1\Subject 1\Session 1\male.ASF
:FULLY-SPECIFIED
:DEGREES
2007
root 7.10918 16.1657 33.8031 -356.59 44.9579 9.10721
lowerback 6.7852 3.4295 -5.35875
upperback 1.61104 4.20535 -0.0412983
thorax -2.51011 2.13523 2.57138
lowerneck -10.23 2.35298 6.13527
upperneck 6.10475 2.8852 -6.74121
head 3.67306 1.24611 -2.87952
rclavicle -1.00635e-014 1.51076e-014
rhumerus -49.0501 4.98913 -95.2223
rradius 91.3127
rwrist 4.95
rhand -35.216 -33.2018
rfingers 7.12502
rthumb -8.35319 -63.0166
lclavicle -1.00635e-014 1.51076e-014
lhumerus -61.3355 -3.60917 92.4336
lradius 69.0013
lwrist 14.2771
lhand -13.0934 10.4128
lfingers 7.12502
lthumb 13.0031 39.9875
rfemur -75.313 6.98727 40.1601
rtibia 69.4365
rfoot 32.1866 34.2419
rtoes -15.8817
lfemur -14.4232 -1.88165 -35.1341
ltibia 44.434
lfoot -22.8387 -0.561437
ltoes 51.8861
2008
root 7.14501 16.1697 33.8626 -355.815 46.3465 9.56545
lowerback 6.51146 3.93178 -5.48664
upperback 1.13457 4.8595 -0.243453
thorax -2.90148 2.47702 2.36372
lowerneck -10.1402 2.79566 6.41895
upperneck 6.19735 3.44054 -6.652
head 3.72596 1.53271 -2.86194
rclavicle -3.12837e-014 9.54166e-015
rhumerus -48.9907 5.89813 -97.614
rradius 90.6214
rwrist 4.81093
rhand -34.6307 -31.5385
rfingers 7.12502
rthumb -7.78832 -61.3751
lclavicle -3.12837e-014 9.54166e-015
lhumerus -61.6238 -3.74794 92.963
lradius 71.3556
lwrist 16.177
lhand -11.334 10.9061
lfingers 7.12502
lthumb 14.6987 40.365
rfemur -73.5763 8.13193 39.4
rtibia 68.9447
rfoot 30.3212 34.3367
rtoes -15.7328
lfemur -14.3999 -2.18463 -35.1753
ltibia 44.3026
lfoot -22.4814 -1.71569
ltoes 51.9446
2009
root 7.17929 16.1667 33.9218 -354.792 48.167 10.2102
lowerback 5.77619 4.33477 -5.86074
upperback 0.939968 5.41095 -0.383798
thorax -2.76059 2.75523 2.41362
lowerneck -10.1466 3.22971 6.51343
upperneck 5.97875 3.98142 -6.44292
head 3.69386 1.81267 -2.7764
rclavicle 2.56184e-014 3.57812e-015
rhumerus -48.3473 7.38301 -99.6843
rradius 89.8071
rwrist 4.71002
rhand -33.4606 -29.8949
rfingers 7.12502
rthumb -6.65887 -59.7702
lclavicle 2.56184e-014 3.57812e-015
lhumerus -61.4498 -4.01206 93.7211
lradius 73.843
lwrist 18.5237
lhand -9.74597 11.6678
lfingers 7.12502
lthumb 16.2283 41.0085
rfemur -72.019 9.04116 38.3737
rtibia 68.3018
rfoot 26.6955 32.9729
rtoes -17.7361
lfemur -14.5062 -2.50112 -35.2354
ltibia 44.2622
lfoot -21.9609 -3.30578
ltoes 52.1296
2010
root 7.22286 16.1793 33.9855 -354.153 50.2281 10.5535
lowerback 5.35816 4.8675 -5.72344
upperback 0.561328 6.13701 -0.691769
thorax -2.93591 3.12419 1.96531
lowerneck -9.92713 3.56471 7.16772
upperneck 5.9955 4.35138 -6.41159
head 3.70066 2.01548 -2.8499
rclavicle -4.15243e-014 7.95139e-015
rhumerus -47.8536 8.27673 -102.147
rradius 88.8648
rwrist 4.81087
rhand -32.7194 -28.3316
rfingers 7.12502
rthumb -5.9433 -58.2283
lclavicle -4.15243e-014 7.95139e-015
lhumerus -61.6882 -5.07756 94.4865
lradius 76.3907
lwrist 20.8555
lhand -7.75129 12.4193
lfingers 7.12502
lthumb 18.1481 41.5926
rfemur -70.2135 9.78648 37.441
rtibia 67.4696
rfoot 23.0103 30.6233
rtoes -19.6149
lfemur -14.401 -2.6234 -34.975
ltibia 44.2663
lfoot -21.3664 -5.34297
ltoes 52.5348
2011
root 7.26189 16.186 34.0424 -353.254 52.981 10.8983
lowerback 4.85988 5.17296 -5.4543
upperback 0.162318 6.57365 -0.962837
thorax -3.04431 3.34576 1.52285
lowerneck -10.0029 3.91607 7.78537
upperneck 6.13846 4.75371 -6.58064
head 3.80304 2.21908 -2.97202
rclavicle -7.90666e-014 -8.74653e-015
rhumerus -47.2432 9.70275 -104.523
rradius 87.9547
rwrist 5.32144
rhand -31.9074 -27.1623
rfingers 7.12502
rthumb -5.1593 -57.0795
lclavicle -7.90666e-014 -8.74653e-015
lhumerus -61.7496 -6.12305 95.3525
lradius 78.9246
lwrist 23.2504
lhand -6.25164 13.6752
lfingers 7.12502
lthumb 19.5904 42.7082
rfemur -68.8928 10.1544 36.3365
rtibia 66.5158
rfoot 19.3471 27.8319
rtoes -22.8647
lfemur -14.5994 -3.12033 -34.5641
ltibia 44.368
lfoot -20.4959 -7.69655
ltoes 53.1201
2012
root 7.30189 16.1918 34.0976 -352.45 56.2522 11.1472
lowerback 4.47403 5.37732 -5.02122
upperback -0.214001 6.87812 -1.16449
thorax -3.16434 3.498 1.06986
lowerneck -9.99498 4.23907 7.73955
upperneck 6.13411 5.15919 -6.20527
head 3.81809 2.43609 -2.81971
rclavicle 5.96447e-014 -2.5842e-015
rhumerus -46.6303 11.4298 -106.665
rradius 87.2303
rwrist 6.17873
rhand -30.7889 -26.2283
rfingers 7.12502
rthumb -4.07925 -56.169
lclavicle 5.96447e-014 -2.5842e-015
lhumerus -61.6701 -7.13191 96.329
lradius 81.2226
lwrist 25.1594
lhand -4.52105 14.7358
lfingers 7.12502
lthumb 21.2535 43.5905
rfemur -67.6681 10.28 35.1881
rtibia 65.4987
rfoot 15.7814 24.9569
rtoes -26.5688
lfemur -14.7728 -3.79865 -33.9371
ltibia 44.4984
lfoot -19.3491 -10.4182
ltoes 53.9571
2013
root 7.33736 16.2035 34.1617 -351.563 59.8751 11.4845
lowerback 3.95762 5.57511 -4.79907
upperback -0.500752 7.17607 -1.19662
thorax -3.15904 3.64731 0.926358
lowerneck -10.0521 4.52495 7.60165
upperneck 6.19225 5.55488 -6.14376
head 3.86721 2.63029 -2.74849
rclavicle 2.24502e-014 -1.78906e-015
rhumerus -46.0062 13.4507 -108.478
rradius 86.5947
rwrist 6.95362
rhand -30.0108 -25.107
rfingers 7.12502
rthumb -3.32791 -55.0607
lclavicle 2.24502e-014 -1.78906e-015
lhumerus -61.329 -8.03738 97.5231
lradius 83.198
lwrist 26.4683
lhand -2.58029 15.7797
lfingers 7.12502
lthumb 23.1167 44.4129
rfemur -66.539 10.4372 33.8487
rtibia 64.4764
rfoot 13.3415 21.4253
rtoes -28.3122
lfemur -14.9662 -4.5854 -33.1775
ltibia 44.663
lfoot -17.9751 -13.3716
ltoes 54.8418
